# xmcd
#
# Track frame offsets:
#	150
#	6585
#	115159
#	148056
#	168447
#	225902
#	260002
#	269357
#	279000
#
# Disc length: 3985 seconds
#
# Revision: 1
# Processed by: cddbd v1.5.2PL0 Copyright (c) Steve Scherf et al.
# Submitted via: audiograbber 1.83.01
#
DISCID=780f8f09
DTITLE=Grateful Dead - 73-07-28A Grand Prix Racecourse, Watkins Glen NY
DYEAR=1900
DGENRE=
TTITLE0=Crowd Noise
TTITLE1=Playing In The Band
TTITLE2=Loose Lucy
TTITLE3=Big River
TTITLE4=He's Gone
TTITLE5=Truckin'
TTITLE6=Nobody's Fault But Mine Jam
TTITLE7=Jam
TTITLE8=El Paso
EXTD=
EXTT0=
EXTT1=
EXTT2=
EXTT3=
EXTT4=
EXTT5=
EXTT6=
EXTT7=
EXTT8=
PLAYORDER=
